G75*
%MOIN*%
%OFA0B0*%
%FSLAX25Y25*%
%IPPOS*%
%LPD*%
%AMOC8*
5,1,8,0,0,1.08239X$1,22.5*
%
%ADD10C,0.13398*%
%ADD11R,0.06312X0.07099*%
%ADD12C,0.08674*%
%ADD13C,0.06000*%
%ADD14C,0.04762*%
D10*
X0052280Y0021485D03*
X0052280Y0297076D03*
X0327871Y0297076D03*
X0327871Y0021485D03*
D11*
X0197162Y0159280D03*
X0182989Y0159280D03*
D12*
X0190075Y0159280D03*
D13*
X0054880Y0154280D02*
X0049680Y0154280D01*
X0049680Y0144280D02*
X0054880Y0144280D01*
X0054880Y0134280D02*
X0049680Y0134280D01*
X0049680Y0164280D02*
X0054880Y0164280D01*
X0054880Y0174280D02*
X0049680Y0174280D01*
X0049680Y0184280D02*
X0054880Y0184280D01*
D14*
X0052280Y0218335D03*
X0052280Y0257706D03*
X0091650Y0301013D03*
X0131020Y0301013D03*
X0170390Y0301013D03*
X0209760Y0301013D03*
X0249131Y0301013D03*
X0288501Y0301013D03*
X0331808Y0257706D03*
X0331808Y0218335D03*
X0331808Y0178965D03*
X0331808Y0139595D03*
X0331808Y0100225D03*
X0331808Y0060855D03*
X0288501Y0021485D03*
X0249131Y0021485D03*
X0209760Y0021485D03*
X0170390Y0021485D03*
X0131020Y0021485D03*
X0091650Y0021485D03*
X0052280Y0060855D03*
X0052280Y0080540D03*
X0098343Y0107312D03*
X0162949Y0163217D03*
X0090469Y0199831D03*
X0090469Y0199831D03*
X0090469Y0199831D03*
X0281808Y0107312D03*
M02*
