%
M48
M72
T01C0.02362
T02C0.03200
T03C0.07874
T04C0.12598
%
T01
X52280Y60855
X52280Y80540
X98343Y107312
X162949Y163217
X90469Y199831
X90469Y199831
X90469Y199831
X52280Y218335
X52280Y257706
X91650Y301013
X131020Y301013
X170390Y301013
X209760Y301013
X249131Y301013
X288501Y301013
X331808Y257706
X331808Y218335
X331808Y178965
X331808Y139595
X331808Y100225
X331808Y60855
X288501Y21485
X249131Y21485
X209760Y21485
X170390Y21485
X131020Y21485
X91650Y21485
X281808Y107312
T02
X52280Y134280
X52280Y144280
X52280Y154280
X52280Y164280
X52280Y174280
X52280Y184280
T03
X190075Y159280
T04
X52280Y21485
X52280Y297076
X327871Y297076
X327871Y21485
M30
