G75*
%MOIN*%
%OFA0B0*%
%FSLAX25Y25*%
%IPPOS*%
%LPD*%
%AMOC8*
5,1,8,0,0,1.08239X$1,22.5*
%
%ADD10C,0.00039*%
%ADD11C,0.00000*%
%ADD12R,0.06299X0.05512*%
%ADD13C,0.06000*%
%ADD14C,0.01600*%
%ADD15OC8,0.03562*%
D10*
X0059997Y0061910D02*
X0059997Y0243406D01*
X0060003Y0243872D01*
X0060020Y0244338D01*
X0060048Y0244803D01*
X0060087Y0245268D01*
X0060138Y0245731D01*
X0060199Y0246193D01*
X0060272Y0246654D01*
X0060356Y0247112D01*
X0060451Y0247569D01*
X0060558Y0248023D01*
X0060675Y0248474D01*
X0060802Y0248922D01*
X0060941Y0249367D01*
X0061091Y0249809D01*
X0061251Y0250247D01*
X0061421Y0250681D01*
X0061602Y0251110D01*
X0061793Y0251535D01*
X0061995Y0251956D01*
X0062207Y0252371D01*
X0062428Y0252781D01*
X0062660Y0253186D01*
X0062901Y0253585D01*
X0063152Y0253978D01*
X0063412Y0254365D01*
X0063681Y0254745D01*
X0063960Y0255119D01*
X0064247Y0255486D01*
X0064544Y0255846D01*
X0064848Y0256198D01*
X0065162Y0256543D01*
X0065483Y0256881D01*
X0065813Y0257211D01*
X0066151Y0257532D01*
X0066496Y0257846D01*
X0066848Y0258150D01*
X0067208Y0258447D01*
X0067575Y0258734D01*
X0067949Y0259013D01*
X0068329Y0259282D01*
X0068716Y0259542D01*
X0069109Y0259793D01*
X0069508Y0260034D01*
X0069913Y0260266D01*
X0070323Y0260487D01*
X0070738Y0260699D01*
X0071159Y0260901D01*
X0071584Y0261092D01*
X0072013Y0261273D01*
X0072447Y0261443D01*
X0072885Y0261603D01*
X0073327Y0261753D01*
X0073772Y0261892D01*
X0074220Y0262019D01*
X0074671Y0262136D01*
X0075125Y0262243D01*
X0075582Y0262338D01*
X0076040Y0262422D01*
X0076501Y0262495D01*
X0076963Y0262556D01*
X0077426Y0262607D01*
X0077891Y0262646D01*
X0078356Y0262674D01*
X0078822Y0262691D01*
X0079288Y0262697D01*
X0260784Y0262697D01*
X0261260Y0262691D01*
X0261735Y0262674D01*
X0262210Y0262645D01*
X0262684Y0262605D01*
X0263157Y0262553D01*
X0263628Y0262490D01*
X0264098Y0262416D01*
X0264566Y0262330D01*
X0265032Y0262233D01*
X0265495Y0262125D01*
X0265955Y0262006D01*
X0266413Y0261875D01*
X0266867Y0261734D01*
X0267318Y0261581D01*
X0267764Y0261418D01*
X0268207Y0261244D01*
X0268645Y0261059D01*
X0269079Y0260864D01*
X0269508Y0260658D01*
X0269932Y0260442D01*
X0270351Y0260216D01*
X0270764Y0259980D01*
X0271171Y0259734D01*
X0271572Y0259478D01*
X0271966Y0259212D01*
X0272355Y0258937D01*
X0272736Y0258653D01*
X0273110Y0258360D01*
X0273478Y0258058D01*
X0273838Y0257746D01*
X0274190Y0257427D01*
X0274534Y0257099D01*
X0274871Y0256762D01*
X0275199Y0256418D01*
X0275518Y0256066D01*
X0275830Y0255706D01*
X0276132Y0255338D01*
X0276425Y0254964D01*
X0276709Y0254583D01*
X0276984Y0254194D01*
X0277250Y0253800D01*
X0277506Y0253399D01*
X0277752Y0252992D01*
X0277988Y0252579D01*
X0278214Y0252160D01*
X0278430Y0251736D01*
X0278636Y0251307D01*
X0278831Y0250873D01*
X0279016Y0250435D01*
X0279190Y0249992D01*
X0279353Y0249546D01*
X0279506Y0249095D01*
X0279647Y0248641D01*
X0279778Y0248183D01*
X0279897Y0247723D01*
X0280005Y0247260D01*
X0280102Y0246794D01*
X0280188Y0246326D01*
X0280262Y0245856D01*
X0280325Y0245385D01*
X0280377Y0244912D01*
X0280417Y0244438D01*
X0280446Y0243963D01*
X0280463Y0243488D01*
X0280469Y0243012D01*
X0280469Y0061516D01*
X0280463Y0061050D01*
X0280446Y0060584D01*
X0280418Y0060119D01*
X0280379Y0059654D01*
X0280328Y0059191D01*
X0280267Y0058729D01*
X0280194Y0058268D01*
X0280110Y0057810D01*
X0280015Y0057353D01*
X0279908Y0056899D01*
X0279791Y0056448D01*
X0279664Y0056000D01*
X0279525Y0055555D01*
X0279375Y0055113D01*
X0279215Y0054675D01*
X0279045Y0054241D01*
X0278864Y0053812D01*
X0278673Y0053387D01*
X0278471Y0052966D01*
X0278259Y0052551D01*
X0278038Y0052141D01*
X0277806Y0051736D01*
X0277565Y0051337D01*
X0277314Y0050944D01*
X0277054Y0050557D01*
X0276785Y0050177D01*
X0276506Y0049803D01*
X0276219Y0049436D01*
X0275922Y0049076D01*
X0275618Y0048724D01*
X0275304Y0048379D01*
X0274983Y0048041D01*
X0274653Y0047711D01*
X0274315Y0047390D01*
X0273970Y0047076D01*
X0273618Y0046772D01*
X0273258Y0046475D01*
X0272891Y0046188D01*
X0272517Y0045909D01*
X0272137Y0045640D01*
X0271750Y0045380D01*
X0271357Y0045129D01*
X0270958Y0044888D01*
X0270553Y0044656D01*
X0270143Y0044435D01*
X0269728Y0044223D01*
X0269307Y0044021D01*
X0268882Y0043830D01*
X0268453Y0043649D01*
X0268019Y0043479D01*
X0267581Y0043319D01*
X0267139Y0043169D01*
X0266694Y0043030D01*
X0266246Y0042903D01*
X0265795Y0042786D01*
X0265341Y0042679D01*
X0264884Y0042584D01*
X0264426Y0042500D01*
X0263965Y0042427D01*
X0263503Y0042366D01*
X0263040Y0042315D01*
X0262575Y0042276D01*
X0262110Y0042248D01*
X0261644Y0042231D01*
X0261178Y0042225D01*
X0079682Y0042225D01*
X0079206Y0042231D01*
X0078731Y0042248D01*
X0078256Y0042277D01*
X0077782Y0042317D01*
X0077309Y0042369D01*
X0076838Y0042432D01*
X0076368Y0042506D01*
X0075900Y0042592D01*
X0075434Y0042689D01*
X0074971Y0042797D01*
X0074511Y0042916D01*
X0074053Y0043047D01*
X0073599Y0043188D01*
X0073148Y0043341D01*
X0072702Y0043504D01*
X0072259Y0043678D01*
X0071821Y0043863D01*
X0071387Y0044058D01*
X0070958Y0044264D01*
X0070534Y0044480D01*
X0070115Y0044706D01*
X0069702Y0044942D01*
X0069295Y0045188D01*
X0068894Y0045444D01*
X0068500Y0045710D01*
X0068111Y0045985D01*
X0067730Y0046269D01*
X0067356Y0046562D01*
X0066988Y0046864D01*
X0066628Y0047176D01*
X0066276Y0047495D01*
X0065932Y0047823D01*
X0065595Y0048160D01*
X0065267Y0048504D01*
X0064948Y0048856D01*
X0064636Y0049216D01*
X0064334Y0049584D01*
X0064041Y0049958D01*
X0063757Y0050339D01*
X0063482Y0050728D01*
X0063216Y0051122D01*
X0062960Y0051523D01*
X0062714Y0051930D01*
X0062478Y0052343D01*
X0062252Y0052762D01*
X0062036Y0053186D01*
X0061830Y0053615D01*
X0061635Y0054049D01*
X0061450Y0054487D01*
X0061276Y0054930D01*
X0061113Y0055376D01*
X0060960Y0055827D01*
X0060819Y0056281D01*
X0060688Y0056739D01*
X0060569Y0057199D01*
X0060461Y0057662D01*
X0060364Y0058128D01*
X0060278Y0058596D01*
X0060204Y0059066D01*
X0060141Y0059537D01*
X0060089Y0060010D01*
X0060049Y0060484D01*
X0060020Y0060959D01*
X0060003Y0061434D01*
X0059997Y0061910D01*
D11*
X0073383Y0061910D02*
X0073385Y0062068D01*
X0073391Y0062226D01*
X0073401Y0062384D01*
X0073415Y0062542D01*
X0073433Y0062699D01*
X0073454Y0062856D01*
X0073480Y0063012D01*
X0073510Y0063168D01*
X0073543Y0063323D01*
X0073581Y0063476D01*
X0073622Y0063629D01*
X0073667Y0063781D01*
X0073716Y0063932D01*
X0073769Y0064081D01*
X0073825Y0064229D01*
X0073885Y0064375D01*
X0073949Y0064520D01*
X0074017Y0064663D01*
X0074088Y0064805D01*
X0074162Y0064945D01*
X0074240Y0065082D01*
X0074322Y0065218D01*
X0074406Y0065352D01*
X0074495Y0065483D01*
X0074586Y0065612D01*
X0074681Y0065739D01*
X0074778Y0065864D01*
X0074879Y0065986D01*
X0074983Y0066105D01*
X0075090Y0066222D01*
X0075200Y0066336D01*
X0075313Y0066447D01*
X0075428Y0066556D01*
X0075546Y0066661D01*
X0075667Y0066763D01*
X0075790Y0066863D01*
X0075916Y0066959D01*
X0076044Y0067052D01*
X0076174Y0067142D01*
X0076307Y0067228D01*
X0076442Y0067312D01*
X0076578Y0067391D01*
X0076717Y0067468D01*
X0076858Y0067540D01*
X0077000Y0067610D01*
X0077144Y0067675D01*
X0077290Y0067737D01*
X0077437Y0067795D01*
X0077586Y0067850D01*
X0077736Y0067901D01*
X0077887Y0067948D01*
X0078039Y0067991D01*
X0078192Y0068030D01*
X0078347Y0068066D01*
X0078502Y0068097D01*
X0078658Y0068125D01*
X0078814Y0068149D01*
X0078971Y0068169D01*
X0079129Y0068185D01*
X0079286Y0068197D01*
X0079445Y0068205D01*
X0079603Y0068209D01*
X0079761Y0068209D01*
X0079919Y0068205D01*
X0080078Y0068197D01*
X0080235Y0068185D01*
X0080393Y0068169D01*
X0080550Y0068149D01*
X0080706Y0068125D01*
X0080862Y0068097D01*
X0081017Y0068066D01*
X0081172Y0068030D01*
X0081325Y0067991D01*
X0081477Y0067948D01*
X0081628Y0067901D01*
X0081778Y0067850D01*
X0081927Y0067795D01*
X0082074Y0067737D01*
X0082220Y0067675D01*
X0082364Y0067610D01*
X0082506Y0067540D01*
X0082647Y0067468D01*
X0082786Y0067391D01*
X0082922Y0067312D01*
X0083057Y0067228D01*
X0083190Y0067142D01*
X0083320Y0067052D01*
X0083448Y0066959D01*
X0083574Y0066863D01*
X0083697Y0066763D01*
X0083818Y0066661D01*
X0083936Y0066556D01*
X0084051Y0066447D01*
X0084164Y0066336D01*
X0084274Y0066222D01*
X0084381Y0066105D01*
X0084485Y0065986D01*
X0084586Y0065864D01*
X0084683Y0065739D01*
X0084778Y0065612D01*
X0084869Y0065483D01*
X0084958Y0065352D01*
X0085042Y0065218D01*
X0085124Y0065082D01*
X0085202Y0064945D01*
X0085276Y0064805D01*
X0085347Y0064663D01*
X0085415Y0064520D01*
X0085479Y0064375D01*
X0085539Y0064229D01*
X0085595Y0064081D01*
X0085648Y0063932D01*
X0085697Y0063781D01*
X0085742Y0063629D01*
X0085783Y0063476D01*
X0085821Y0063323D01*
X0085854Y0063168D01*
X0085884Y0063012D01*
X0085910Y0062856D01*
X0085931Y0062699D01*
X0085949Y0062542D01*
X0085963Y0062384D01*
X0085973Y0062226D01*
X0085979Y0062068D01*
X0085981Y0061910D01*
X0085979Y0061752D01*
X0085973Y0061594D01*
X0085963Y0061436D01*
X0085949Y0061278D01*
X0085931Y0061121D01*
X0085910Y0060964D01*
X0085884Y0060808D01*
X0085854Y0060652D01*
X0085821Y0060497D01*
X0085783Y0060344D01*
X0085742Y0060191D01*
X0085697Y0060039D01*
X0085648Y0059888D01*
X0085595Y0059739D01*
X0085539Y0059591D01*
X0085479Y0059445D01*
X0085415Y0059300D01*
X0085347Y0059157D01*
X0085276Y0059015D01*
X0085202Y0058875D01*
X0085124Y0058738D01*
X0085042Y0058602D01*
X0084958Y0058468D01*
X0084869Y0058337D01*
X0084778Y0058208D01*
X0084683Y0058081D01*
X0084586Y0057956D01*
X0084485Y0057834D01*
X0084381Y0057715D01*
X0084274Y0057598D01*
X0084164Y0057484D01*
X0084051Y0057373D01*
X0083936Y0057264D01*
X0083818Y0057159D01*
X0083697Y0057057D01*
X0083574Y0056957D01*
X0083448Y0056861D01*
X0083320Y0056768D01*
X0083190Y0056678D01*
X0083057Y0056592D01*
X0082922Y0056508D01*
X0082786Y0056429D01*
X0082647Y0056352D01*
X0082506Y0056280D01*
X0082364Y0056210D01*
X0082220Y0056145D01*
X0082074Y0056083D01*
X0081927Y0056025D01*
X0081778Y0055970D01*
X0081628Y0055919D01*
X0081477Y0055872D01*
X0081325Y0055829D01*
X0081172Y0055790D01*
X0081017Y0055754D01*
X0080862Y0055723D01*
X0080706Y0055695D01*
X0080550Y0055671D01*
X0080393Y0055651D01*
X0080235Y0055635D01*
X0080078Y0055623D01*
X0079919Y0055615D01*
X0079761Y0055611D01*
X0079603Y0055611D01*
X0079445Y0055615D01*
X0079286Y0055623D01*
X0079129Y0055635D01*
X0078971Y0055651D01*
X0078814Y0055671D01*
X0078658Y0055695D01*
X0078502Y0055723D01*
X0078347Y0055754D01*
X0078192Y0055790D01*
X0078039Y0055829D01*
X0077887Y0055872D01*
X0077736Y0055919D01*
X0077586Y0055970D01*
X0077437Y0056025D01*
X0077290Y0056083D01*
X0077144Y0056145D01*
X0077000Y0056210D01*
X0076858Y0056280D01*
X0076717Y0056352D01*
X0076578Y0056429D01*
X0076442Y0056508D01*
X0076307Y0056592D01*
X0076174Y0056678D01*
X0076044Y0056768D01*
X0075916Y0056861D01*
X0075790Y0056957D01*
X0075667Y0057057D01*
X0075546Y0057159D01*
X0075428Y0057264D01*
X0075313Y0057373D01*
X0075200Y0057484D01*
X0075090Y0057598D01*
X0074983Y0057715D01*
X0074879Y0057834D01*
X0074778Y0057956D01*
X0074681Y0058081D01*
X0074586Y0058208D01*
X0074495Y0058337D01*
X0074406Y0058468D01*
X0074322Y0058602D01*
X0074240Y0058738D01*
X0074162Y0058875D01*
X0074088Y0059015D01*
X0074017Y0059157D01*
X0073949Y0059300D01*
X0073885Y0059445D01*
X0073825Y0059591D01*
X0073769Y0059739D01*
X0073716Y0059888D01*
X0073667Y0060039D01*
X0073622Y0060191D01*
X0073581Y0060344D01*
X0073543Y0060497D01*
X0073510Y0060652D01*
X0073480Y0060808D01*
X0073454Y0060964D01*
X0073433Y0061121D01*
X0073415Y0061278D01*
X0073401Y0061436D01*
X0073391Y0061594D01*
X0073385Y0061752D01*
X0073383Y0061910D01*
X0166296Y0152461D02*
X0166298Y0152586D01*
X0166304Y0152711D01*
X0166314Y0152835D01*
X0166328Y0152959D01*
X0166345Y0153083D01*
X0166367Y0153206D01*
X0166393Y0153328D01*
X0166422Y0153450D01*
X0166455Y0153570D01*
X0166493Y0153689D01*
X0166533Y0153808D01*
X0166578Y0153924D01*
X0166626Y0154039D01*
X0166678Y0154153D01*
X0166734Y0154265D01*
X0166793Y0154375D01*
X0166855Y0154483D01*
X0166921Y0154590D01*
X0166990Y0154694D01*
X0167063Y0154795D01*
X0167138Y0154895D01*
X0167217Y0154992D01*
X0167299Y0155086D01*
X0167384Y0155178D01*
X0167471Y0155267D01*
X0167562Y0155353D01*
X0167655Y0155436D01*
X0167751Y0155517D01*
X0167849Y0155594D01*
X0167949Y0155668D01*
X0168052Y0155739D01*
X0168157Y0155806D01*
X0168265Y0155871D01*
X0168374Y0155931D01*
X0168485Y0155989D01*
X0168598Y0156042D01*
X0168712Y0156092D01*
X0168828Y0156139D01*
X0168945Y0156181D01*
X0169064Y0156220D01*
X0169184Y0156256D01*
X0169305Y0156287D01*
X0169427Y0156315D01*
X0169549Y0156338D01*
X0169673Y0156358D01*
X0169797Y0156374D01*
X0169921Y0156386D01*
X0170046Y0156394D01*
X0170171Y0156398D01*
X0170295Y0156398D01*
X0170420Y0156394D01*
X0170545Y0156386D01*
X0170669Y0156374D01*
X0170793Y0156358D01*
X0170917Y0156338D01*
X0171039Y0156315D01*
X0171161Y0156287D01*
X0171282Y0156256D01*
X0171402Y0156220D01*
X0171521Y0156181D01*
X0171638Y0156139D01*
X0171754Y0156092D01*
X0171868Y0156042D01*
X0171981Y0155989D01*
X0172092Y0155931D01*
X0172202Y0155871D01*
X0172309Y0155806D01*
X0172414Y0155739D01*
X0172517Y0155668D01*
X0172617Y0155594D01*
X0172715Y0155517D01*
X0172811Y0155436D01*
X0172904Y0155353D01*
X0172995Y0155267D01*
X0173082Y0155178D01*
X0173167Y0155086D01*
X0173249Y0154992D01*
X0173328Y0154895D01*
X0173403Y0154795D01*
X0173476Y0154694D01*
X0173545Y0154590D01*
X0173611Y0154483D01*
X0173673Y0154375D01*
X0173732Y0154265D01*
X0173788Y0154153D01*
X0173840Y0154039D01*
X0173888Y0153924D01*
X0173933Y0153808D01*
X0173973Y0153689D01*
X0174011Y0153570D01*
X0174044Y0153450D01*
X0174073Y0153328D01*
X0174099Y0153206D01*
X0174121Y0153083D01*
X0174138Y0152959D01*
X0174152Y0152835D01*
X0174162Y0152711D01*
X0174168Y0152586D01*
X0174170Y0152461D01*
X0174168Y0152336D01*
X0174162Y0152211D01*
X0174152Y0152087D01*
X0174138Y0151963D01*
X0174121Y0151839D01*
X0174099Y0151716D01*
X0174073Y0151594D01*
X0174044Y0151472D01*
X0174011Y0151352D01*
X0173973Y0151233D01*
X0173933Y0151114D01*
X0173888Y0150998D01*
X0173840Y0150883D01*
X0173788Y0150769D01*
X0173732Y0150657D01*
X0173673Y0150547D01*
X0173611Y0150439D01*
X0173545Y0150332D01*
X0173476Y0150228D01*
X0173403Y0150127D01*
X0173328Y0150027D01*
X0173249Y0149930D01*
X0173167Y0149836D01*
X0173082Y0149744D01*
X0172995Y0149655D01*
X0172904Y0149569D01*
X0172811Y0149486D01*
X0172715Y0149405D01*
X0172617Y0149328D01*
X0172517Y0149254D01*
X0172414Y0149183D01*
X0172309Y0149116D01*
X0172201Y0149051D01*
X0172092Y0148991D01*
X0171981Y0148933D01*
X0171868Y0148880D01*
X0171754Y0148830D01*
X0171638Y0148783D01*
X0171521Y0148741D01*
X0171402Y0148702D01*
X0171282Y0148666D01*
X0171161Y0148635D01*
X0171039Y0148607D01*
X0170917Y0148584D01*
X0170793Y0148564D01*
X0170669Y0148548D01*
X0170545Y0148536D01*
X0170420Y0148528D01*
X0170295Y0148524D01*
X0170171Y0148524D01*
X0170046Y0148528D01*
X0169921Y0148536D01*
X0169797Y0148548D01*
X0169673Y0148564D01*
X0169549Y0148584D01*
X0169427Y0148607D01*
X0169305Y0148635D01*
X0169184Y0148666D01*
X0169064Y0148702D01*
X0168945Y0148741D01*
X0168828Y0148783D01*
X0168712Y0148830D01*
X0168598Y0148880D01*
X0168485Y0148933D01*
X0168374Y0148991D01*
X0168264Y0149051D01*
X0168157Y0149116D01*
X0168052Y0149183D01*
X0167949Y0149254D01*
X0167849Y0149328D01*
X0167751Y0149405D01*
X0167655Y0149486D01*
X0167562Y0149569D01*
X0167471Y0149655D01*
X0167384Y0149744D01*
X0167299Y0149836D01*
X0167217Y0149930D01*
X0167138Y0150027D01*
X0167063Y0150127D01*
X0166990Y0150228D01*
X0166921Y0150332D01*
X0166855Y0150439D01*
X0166793Y0150547D01*
X0166734Y0150657D01*
X0166678Y0150769D01*
X0166626Y0150883D01*
X0166578Y0150998D01*
X0166533Y0151114D01*
X0166493Y0151233D01*
X0166455Y0151352D01*
X0166422Y0151472D01*
X0166393Y0151594D01*
X0166367Y0151716D01*
X0166345Y0151839D01*
X0166328Y0151963D01*
X0166314Y0152087D01*
X0166304Y0152211D01*
X0166298Y0152336D01*
X0166296Y0152461D01*
X0254485Y0243012D02*
X0254487Y0243170D01*
X0254493Y0243328D01*
X0254503Y0243486D01*
X0254517Y0243644D01*
X0254535Y0243801D01*
X0254556Y0243958D01*
X0254582Y0244114D01*
X0254612Y0244270D01*
X0254645Y0244425D01*
X0254683Y0244578D01*
X0254724Y0244731D01*
X0254769Y0244883D01*
X0254818Y0245034D01*
X0254871Y0245183D01*
X0254927Y0245331D01*
X0254987Y0245477D01*
X0255051Y0245622D01*
X0255119Y0245765D01*
X0255190Y0245907D01*
X0255264Y0246047D01*
X0255342Y0246184D01*
X0255424Y0246320D01*
X0255508Y0246454D01*
X0255597Y0246585D01*
X0255688Y0246714D01*
X0255783Y0246841D01*
X0255880Y0246966D01*
X0255981Y0247088D01*
X0256085Y0247207D01*
X0256192Y0247324D01*
X0256302Y0247438D01*
X0256415Y0247549D01*
X0256530Y0247658D01*
X0256648Y0247763D01*
X0256769Y0247865D01*
X0256892Y0247965D01*
X0257018Y0248061D01*
X0257146Y0248154D01*
X0257276Y0248244D01*
X0257409Y0248330D01*
X0257544Y0248414D01*
X0257680Y0248493D01*
X0257819Y0248570D01*
X0257960Y0248642D01*
X0258102Y0248712D01*
X0258246Y0248777D01*
X0258392Y0248839D01*
X0258539Y0248897D01*
X0258688Y0248952D01*
X0258838Y0249003D01*
X0258989Y0249050D01*
X0259141Y0249093D01*
X0259294Y0249132D01*
X0259449Y0249168D01*
X0259604Y0249199D01*
X0259760Y0249227D01*
X0259916Y0249251D01*
X0260073Y0249271D01*
X0260231Y0249287D01*
X0260388Y0249299D01*
X0260547Y0249307D01*
X0260705Y0249311D01*
X0260863Y0249311D01*
X0261021Y0249307D01*
X0261180Y0249299D01*
X0261337Y0249287D01*
X0261495Y0249271D01*
X0261652Y0249251D01*
X0261808Y0249227D01*
X0261964Y0249199D01*
X0262119Y0249168D01*
X0262274Y0249132D01*
X0262427Y0249093D01*
X0262579Y0249050D01*
X0262730Y0249003D01*
X0262880Y0248952D01*
X0263029Y0248897D01*
X0263176Y0248839D01*
X0263322Y0248777D01*
X0263466Y0248712D01*
X0263608Y0248642D01*
X0263749Y0248570D01*
X0263888Y0248493D01*
X0264024Y0248414D01*
X0264159Y0248330D01*
X0264292Y0248244D01*
X0264422Y0248154D01*
X0264550Y0248061D01*
X0264676Y0247965D01*
X0264799Y0247865D01*
X0264920Y0247763D01*
X0265038Y0247658D01*
X0265153Y0247549D01*
X0265266Y0247438D01*
X0265376Y0247324D01*
X0265483Y0247207D01*
X0265587Y0247088D01*
X0265688Y0246966D01*
X0265785Y0246841D01*
X0265880Y0246714D01*
X0265971Y0246585D01*
X0266060Y0246454D01*
X0266144Y0246320D01*
X0266226Y0246184D01*
X0266304Y0246047D01*
X0266378Y0245907D01*
X0266449Y0245765D01*
X0266517Y0245622D01*
X0266581Y0245477D01*
X0266641Y0245331D01*
X0266697Y0245183D01*
X0266750Y0245034D01*
X0266799Y0244883D01*
X0266844Y0244731D01*
X0266885Y0244578D01*
X0266923Y0244425D01*
X0266956Y0244270D01*
X0266986Y0244114D01*
X0267012Y0243958D01*
X0267033Y0243801D01*
X0267051Y0243644D01*
X0267065Y0243486D01*
X0267075Y0243328D01*
X0267081Y0243170D01*
X0267083Y0243012D01*
X0267081Y0242854D01*
X0267075Y0242696D01*
X0267065Y0242538D01*
X0267051Y0242380D01*
X0267033Y0242223D01*
X0267012Y0242066D01*
X0266986Y0241910D01*
X0266956Y0241754D01*
X0266923Y0241599D01*
X0266885Y0241446D01*
X0266844Y0241293D01*
X0266799Y0241141D01*
X0266750Y0240990D01*
X0266697Y0240841D01*
X0266641Y0240693D01*
X0266581Y0240547D01*
X0266517Y0240402D01*
X0266449Y0240259D01*
X0266378Y0240117D01*
X0266304Y0239977D01*
X0266226Y0239840D01*
X0266144Y0239704D01*
X0266060Y0239570D01*
X0265971Y0239439D01*
X0265880Y0239310D01*
X0265785Y0239183D01*
X0265688Y0239058D01*
X0265587Y0238936D01*
X0265483Y0238817D01*
X0265376Y0238700D01*
X0265266Y0238586D01*
X0265153Y0238475D01*
X0265038Y0238366D01*
X0264920Y0238261D01*
X0264799Y0238159D01*
X0264676Y0238059D01*
X0264550Y0237963D01*
X0264422Y0237870D01*
X0264292Y0237780D01*
X0264159Y0237694D01*
X0264024Y0237610D01*
X0263888Y0237531D01*
X0263749Y0237454D01*
X0263608Y0237382D01*
X0263466Y0237312D01*
X0263322Y0237247D01*
X0263176Y0237185D01*
X0263029Y0237127D01*
X0262880Y0237072D01*
X0262730Y0237021D01*
X0262579Y0236974D01*
X0262427Y0236931D01*
X0262274Y0236892D01*
X0262119Y0236856D01*
X0261964Y0236825D01*
X0261808Y0236797D01*
X0261652Y0236773D01*
X0261495Y0236753D01*
X0261337Y0236737D01*
X0261180Y0236725D01*
X0261021Y0236717D01*
X0260863Y0236713D01*
X0260705Y0236713D01*
X0260547Y0236717D01*
X0260388Y0236725D01*
X0260231Y0236737D01*
X0260073Y0236753D01*
X0259916Y0236773D01*
X0259760Y0236797D01*
X0259604Y0236825D01*
X0259449Y0236856D01*
X0259294Y0236892D01*
X0259141Y0236931D01*
X0258989Y0236974D01*
X0258838Y0237021D01*
X0258688Y0237072D01*
X0258539Y0237127D01*
X0258392Y0237185D01*
X0258246Y0237247D01*
X0258102Y0237312D01*
X0257960Y0237382D01*
X0257819Y0237454D01*
X0257680Y0237531D01*
X0257544Y0237610D01*
X0257409Y0237694D01*
X0257276Y0237780D01*
X0257146Y0237870D01*
X0257018Y0237963D01*
X0256892Y0238059D01*
X0256769Y0238159D01*
X0256648Y0238261D01*
X0256530Y0238366D01*
X0256415Y0238475D01*
X0256302Y0238586D01*
X0256192Y0238700D01*
X0256085Y0238817D01*
X0255981Y0238936D01*
X0255880Y0239058D01*
X0255783Y0239183D01*
X0255688Y0239310D01*
X0255597Y0239439D01*
X0255508Y0239570D01*
X0255424Y0239704D01*
X0255342Y0239840D01*
X0255264Y0239977D01*
X0255190Y0240117D01*
X0255119Y0240259D01*
X0255051Y0240402D01*
X0254987Y0240547D01*
X0254927Y0240693D01*
X0254871Y0240841D01*
X0254818Y0240990D01*
X0254769Y0241141D01*
X0254724Y0241293D01*
X0254683Y0241446D01*
X0254645Y0241599D01*
X0254612Y0241754D01*
X0254582Y0241910D01*
X0254556Y0242066D01*
X0254535Y0242223D01*
X0254517Y0242380D01*
X0254503Y0242538D01*
X0254493Y0242696D01*
X0254487Y0242854D01*
X0254485Y0243012D01*
D12*
G36*
X0175524Y0162204D02*
X0179976Y0157752D01*
X0176078Y0153854D01*
X0171626Y0158306D01*
X0175524Y0162204D01*
G37*
G36*
X0164388Y0151068D02*
X0168840Y0146616D01*
X0164942Y0142718D01*
X0160490Y0147170D01*
X0164388Y0151068D01*
G37*
D13*
X0082606Y0225946D02*
X0078363Y0230189D01*
X0071292Y0223117D02*
X0075535Y0218875D01*
X0089677Y0233017D02*
X0085434Y0237260D01*
X0092506Y0244331D02*
X0096748Y0240088D01*
X0103819Y0247159D02*
X0099577Y0251402D01*
X0257860Y0075039D02*
X0262102Y0070797D01*
X0255031Y0063726D02*
X0250789Y0067968D01*
X0243718Y0060897D02*
X0247960Y0056655D01*
D14*
X0246808Y0056792D02*
X0246808Y0057807D01*
X0245839Y0058776D01*
X0246808Y0056792D02*
X0172989Y0130611D01*
X0172989Y0139666D01*
X0165222Y0147433D01*
X0164665Y0146893D01*
X0175261Y0157472D02*
X0184012Y0148721D01*
X0184012Y0134745D01*
X0252910Y0065847D01*
X0175261Y0157472D02*
X0175801Y0158029D01*
X0145036Y0155414D02*
X0144642Y0156527D01*
X0141493Y0155414D01*
X0144642Y0154300D01*
X0145036Y0155414D01*
X0141493Y0155414D01*
X0138996Y0155414D01*
X0073414Y0220996D01*
D15*
X0067871Y0215453D03*
X0067871Y0203642D03*
X0067871Y0233918D03*
X0067871Y0243012D03*
X0077713Y0254823D03*
X0089524Y0254823D03*
X0119052Y0254823D03*
X0145036Y0155414D03*
X0067871Y0101280D03*
X0067871Y0085532D03*
X0103304Y0050099D03*
X0119052Y0050099D03*
X0225351Y0050099D03*
X0241099Y0050099D03*
X0260784Y0050099D03*
X0272595Y0061910D03*
X0272595Y0077658D03*
X0272595Y0093406D03*
X0272595Y0215453D03*
X0233225Y0254823D03*
M02*
