%
M48
M72
T01C0.02362
T02C0.04000
T03C0.07874
T04C0.12598
%
T01
X67871Y243012
X67871Y233918
X272595Y61910
X103304Y50099
X119052Y50099
X67871Y85532
X67871Y101280
X145036Y155414
X67871Y203642
X67871Y215453
X77713Y254823
X89524Y254823
X119052Y254823
X233225Y254823
X272595Y215453
X272595Y93406
X272595Y77658
X260784Y50099
X241099Y50099
X225351Y50099
T02
X87556Y235138
X94627Y242209
X101698Y249280
X80485Y228067
X73414Y220996
X245839Y58776
X252910Y65847
X259981Y72918
T03
X170233Y152461
T04
X260784Y243012
X79682Y61910
M30
